<?xml version="1.0" encoding="UTF-8"?>
<svg width="16px" height="16px" viewBox="0 0 16 16" version="1.1" xmlns="http://www.w3.org/2000/svg" xmlns:xlink="http://www.w3.org/1999/xlink">
    <!-- Generator: sketchtool 42 (36781) - http://www.bohemiancoding.com/sketch -->
    <title>21E03495-8327-4C02-93A2-F0F12BD03E78</title>
    <desc>Created with sketchtool.</desc>
    <defs></defs>
    <g id="Symbols" stroke="none" stroke-width="1" fill="none" fill-rule="evenodd">
        <g id="поиск-copy-2" fill="#FFFFFF">
            <g id="поиск">
                <path d="M6.224,10.874 C3.464,10.874 1.226,8.706 1.226,6.032 C1.226,3.358 3.464,1.191 6.224,1.191 C8.984,1.191 11.221,3.358 11.221,6.032 C11.221,8.706 8.984,10.874 6.224,10.874 L6.224,10.874 Z M11.332,9.4 C12.013,8.435 12.412,7.269 12.412,6.012 C12.412,2.691 9.634,0 6.206,0 C2.779,0 0,2.691 0,6.012 C0,9.332 2.779,12.024 6.206,12.024 C7.455,12.024 8.615,11.663 9.589,11.048 L14.268,15.612 L15.995,13.948 L11.332,9.4 L11.332,9.4 Z" id="поиск-иконка"></path>
            </g>
        </g>
    </g>
</svg>